<svg width="52" height="52" viewBox="0 0 52 52" fill="none" xmlns="http://www.w3.org/2000/svg">
<rect width="52" height="52" fill="white"/>
<path d="M6.98017 28.994C7.02197 28.9787 7.0678 28.9787 7.1096 28.994C7.40886 29.1118 7.72458 29.1824 8.04549 29.2032H8.26453C8.16869 29.3555 8.05132 29.4931 7.91606 29.6117H7.37842L6.96025 29.0438L6.98017 28.994ZM11.3908 34.7627C11.3908 34.414 11.0622 34.2048 10.893 34.0852C10.8502 34.0605 10.8237 34.015 10.8233 33.9657V32.4712C10.5818 31.2865 9.74599 30.3106 8.61299 29.8907C8.8424 29.682 8.96962 29.3838 8.96146 29.0737C8.92211 28.8356 8.71477 28.6619 8.47361 28.6652H8.07536C7.82585 28.64 7.58115 28.5796 7.34855 28.4858C7.17094 28.4259 6.97856 28.4259 6.80095 28.4858C6.60358 28.5496 6.44958 28.7056 6.38816 28.9038C6.32674 29.1021 6.3656 29.3178 6.49231 29.4822L6.791 29.9006C5.67296 30.3201 4.85168 31.2889 4.62053 32.4612V33.8561C4.61537 33.904 4.59002 33.9475 4.55084 33.9756H4.4911C4.23024 34.1112 4.04919 34.3626 4.00324 34.6531C3.98573 34.8262 4.03968 34.999 4.15259 35.1314C4.38131 35.3577 4.69858 35.4708 5.01878 35.4402H10.425C10.7435 35.4815 11.0623 35.3665 11.2813 35.1314C11.3958 34.9995 11.4531 34.8274 11.4406 34.6531" fill="#E24000"/>
<path d="M24.0552 25.6762H12.5557V35.5H24.0552V25.6762Z" fill="#E24000"/>
<path d="M35.0668 16.5H27.968V24.5205H35.0668V16.5Z" fill="#E24000"/>
<path d="M48 28.1272H36.2118V35.5H48V28.1272Z" fill="#E24000"/>
<path d="M36.2118 21.5315V22.2687H42.1158V21.5315H36.2118ZM36.2118 22.6374V27.0013C36.2161 27.0379 36.2449 27.0667 36.2815 27.0711H42.0461C42.0461 27.0711 42.1158 27.0212 42.1158 26.9515V22.6374H36.2118ZM38.5017 23.3747H39.7861C39.8558 23.3747 39.9056 23.3747 39.9056 23.4444V24.0422C39.9012 24.0788 39.8724 24.1076 39.8359 24.112H38.5515C38.513 24.112 38.4818 24.0807 38.4818 24.0422V23.4444C38.4861 23.4078 38.515 23.379 38.5515 23.3747H38.5017Z" fill="#E24000"/>
<path d="M25.2001 25.6762V35.5H35.0768V25.6762H25.2001ZM32.1695 30.4486L30.915 30.1995V33.1885C30.915 33.3041 30.8214 33.3977 30.706 33.3977H29.5908C29.4754 33.3977 29.3818 33.3041 29.3818 33.1885V30.1995L28.1472 30.4486C28.0569 30.4702 27.9631 30.4296 27.9171 30.3489C27.871 30.2682 27.8836 30.1668 27.9481 30.0999L29.9393 27.8781C29.9807 27.8342 30.0383 27.8093 30.0986 27.8093C30.1589 27.8093 30.2165 27.8342 30.2579 27.8781L32.2492 30.0999C32.2954 30.1584 32.3087 30.2364 32.2845 30.3069C32.2603 30.3774 32.202 30.4308 32.1297 30.4486H32.1695Z" fill="#E24000"/>
<path d="M26.823 19.4093H22.0241V24.5304H26.823V19.4093Z" fill="#E24000"/>
</svg>
